<?xml version="1.0" standalone="no"?>
<!DOCTYPE svg PUBLIC "-//W3C//DTD SVG 20010904//EN"
 "http://www.w3.org/TR/2001/REC-SVG-20010904/DTD/svg10.dtd">
<svg version="1.0" xmlns="http://www.w3.org/2000/svg"
 width="1280.000000pt" height="640.000000pt" viewBox="0 0 1280.000000 640.000000"
 preserveAspectRatio="xMidYMid meet">
<metadata>
Created by potrace 1.15, written by Peter Selinger 2001-2017
</metadata>
<g transform="translate(0.000000,640.000000) scale(0.100000,-0.100000)"
fill="#000000" stroke="none">
<path d="M6265 5128 c-47 -27 -294 -219 -314 -244 -22 -28 -27 -77 -12 -116 5
-13 111 -148 235 -302 124 -153 226 -286 226 -296 0 -10 -9 -48 -21 -84 -31
-103 -78 -145 -204 -184 -127 -40 -328 -93 -333 -88 -2 3 51 130 117 284 67
154 121 289 121 299 0 46 -57 58 -88 18 -11 -14 -44 -85 -73 -157 -81 -205
-189 -462 -197 -470 -23 -23 -445 -75 -623 -77 l-117 -2 -768 482 c-423 265
-775 487 -782 494 -12 11 -44 126 -37 133 2 2 398 -245 880 -548 483 -303 879
-549 881 -547 3 2 -388 251 -868 552 -480 302 -880 555 -890 562 -9 8 -19 29
-22 47 -15 79 -113 110 -163 51 -22 -24 -25 -36 -20 -74 5 -39 121 -594 147
-701 4 -19 11 -47 14 -62 l6 -28 -95 0 -95 0 0 60 c0 60 0 60 -29 60 -17 0
-32 4 -36 9 -3 5 -31 19 -63 31 -71 27 -194 29 -300 5 l-72 -17 -36 31 c-63
56 -84 35 -84 -87 l0 -79 -198 -6 c-422 -13 -1100 -124 -1427 -233 -272 -91
-567 -249 -702 -377 -135 -127 -173 -339 -107 -595 13 -51 24 -94 24 -97 0 -3
-18 -5 -39 -5 -46 0 -58 -20 -41 -65 10 -25 13 -27 65 -23 54 3 55 2 66 -29
12 -39 -2 -76 -66 -172 -66 -98 -58 -166 18 -155 47 7 90 -23 106 -75 8 -28
20 -46 38 -54 23 -10 28 -8 49 16 18 22 24 40 24 78 0 27 2 49 5 49 2 0 28
-18 56 -39 29 -22 75 -50 103 -64 82 -40 596 -140 781 -152 55 -3 207 -17 339
-31 131 -13 244 -24 250 -24 7 0 26 -35 44 -78 91 -222 294 -438 521 -556 342
-177 720 -180 1067 -9 173 85 348 239 444 391 l45 71 226 1 227 0 6 -24 c17
-68 125 -92 190 -43 34 27 36 27 210 27 l176 0 0 -25 c0 -26 1 -26 68 -23 61
3 67 5 70 26 l3 22 1712 0 c1844 0 1787 -1 1875 50 31 19 53 20 323 20 l289 0
28 -46 c218 -369 635 -594 1060 -571 476 25 879 324 1042 775 l23 62 319 0
c346 0 365 3 406 55 12 15 22 36 22 45 0 10 10 20 24 24 17 4 29 20 45 65 26
70 41 86 78 77 82 -21 81 -21 89 18 3 21 0 90 -8 154 -12 95 -12 123 -2 147 7
17 17 114 23 215 11 183 22 246 72 410 42 140 3 204 -144 234 -33 7 -64 19
-68 27 -4 8 -17 38 -30 67 -28 65 -105 139 -185 180 -147 74 -476 158 -824
211 -457 69 -922 101 -1500 102 -257 0 -439 5 -499 12 l-94 13 2 77 2 77 -538
0 c-364 0 -608 -5 -753 -15 -118 -8 -224 -15 -235 -15 -14 0 -24 10 -32 30
-11 29 -14 30 -72 30 -57 0 -62 -2 -71 -26 -6 -14 -8 -29 -5 -34 6 -10 -46
-16 -240 -30 -178 -13 -175 -13 -175 4 0 16 -56 66 -74 66 -14 0 -676 712
-695 749 -34 65 -72 84 -116 59z m60 -4 c9 -4 24 -23 34 -43 30 -57 687 -763
728 -781 l35 -15 -27 -25 c-19 -18 -41 -26 -85 -30 -33 -3 -60 -5 -60 -3 0 1
19 20 42 42 l42 39 -44 48 c-43 48 -347 374 -525 565 -49 53 -104 104 -121
114 -31 18 -32 18 -75 -8 -24 -14 -68 -47 -96 -72 -89 -79 -86 -86 156 -390
149 -187 151 -190 151 -239 0 -27 -2 -47 -4 -45 -39 40 -430 544 -442 568 -32
66 3 109 200 241 62 42 65 44 91 34z m206 -291 c382 -408 479 -513 479 -522 0
-4 -20 -27 -44 -49 l-44 -40 -155 -1 c-127 -2 -156 1 -160 13 -4 10 7 17 43
26 28 7 67 25 89 40 85 62 72 150 -29 202 -46 24 -64 28 -141 28 l-88 0 -3
-65 -3 -65 -156 197 c-159 201 -189 246 -189 282 0 20 45 67 116 121 74 56 77
54 285 -167z m-3201 107 c25 -13 28 -26 110 -400 39 -179 79 -362 89 -407 10
-46 15 -83 10 -83 -11 0 -164 22 -166 24 -7 6 -173 793 -173 821 0 43 81 71
130 45z m2682 -39 c-2 -15 4 -43 13 -62 10 -18 123 -165 251 -326 l234 -293
-49 0 c-27 0 -51 -5 -53 -10 -3 -10 -360 424 -435 528 -46 64 -45 109 4 157
20 19 37 35 38 35 1 0 0 -13 -3 -29z m-1825 -707 c417 -261 761 -478 765 -482
4 -4 -201 -5 -455 -2 l-462 5 -124 73 c-68 40 -146 84 -172 98 -35 17 -51 32
-55 52 -12 46 -34 70 -79 88 -43 16 -44 17 -59 88 -78 349 -122 556 -120 556
1 0 344 -214 761 -476z m2403 201 c0 -69 -2 -125 -4 -125 -3 0 -25 25 -50 56
-45 54 -46 58 -46 125 l0 69 50 0 50 0 0 -125z m119 97 c70 -36 92 -98 54
-150 -22 -31 -97 -72 -130 -72 -23 0 -23 1 -23 126 l0 127 32 -7 c18 -4 48
-15 67 -24z m-646 -83 c7 -12 -21 -87 -116 -310 l-127 -294 -36 -8 c-21 -4
-38 -6 -40 -5 -1 2 18 50 42 108 25 58 79 191 121 295 42 105 85 200 96 213
23 25 45 25 60 1z m469 -98 l28 -39 -30 -4 c-17 -3 -32 -2 -35 0 -8 8 -6 82 3
82 4 0 19 -18 34 -39z m1167 -3 c10 -27 -8 -35 -76 -37 -39 -1 -43 1 -43 23 0
27 13 33 73 35 30 1 39 -3 46 -21z m1551 -78 c0 -60 -2 -70 -17 -70 -10 0
-106 9 -213 20 -489 48 -633 55 -1192 54 -296 0 -536 1 -535 2 1 1 88 7 192
13 105 7 206 14 225 16 19 2 125 9 235 15 110 6 214 12 230 14 17 2 265 4 553
4 l522 2 0 -70z m-6585 -33 c14 -24 25 -59 25 -78 l0 -33 16 22 c26 38 27 38
387 68 l68 5 -3 -50 c-2 -28 -6 -51 -10 -51 -5 0 -138 0 -298 0 l-290 0 0 83
c0 49 5 88 11 94 19 19 65 -11 94 -60z m4475 47 c0 -9 -11 -14 -32 -14 l-33 0
25 19 c26 21 40 19 40 -5z m-546 -9 c4 -12 -3 -15 -33 -15 -22 0 -44 6 -51 15
-11 13 -6 15 33 15 31 0 47 -5 51 -15z m-3559 -16 c31 -12 54 -23 51 -26 -3
-3 -78 -12 -167 -20 -94 -8 -173 -20 -189 -28 -26 -14 -28 -13 -33 8 -2 12 -8
29 -11 39 -6 13 3 19 56 31 97 23 226 21 293 -4z m5535 -14 c236 -16 832 -74
839 -81 2 -2 -25 -4 -60 -4 -127 0 -898 -43 -986 -54 -29 -4 -33 -2 -33 19 0
58 24 73 39 23 9 -31 9 -31 10 -7 1 15 -6 33 -15 40 -14 11 -18 10 -30 -6 -8
-10 -14 -31 -14 -47 0 -24 -4 -28 -30 -28 -26 0 -30 4 -30 28 0 15 -7 38 -16
50 -23 33 -44 12 -44 -45 0 -40 -2 -44 -22 -41 -17 2 -24 11 -26 33 -4 39 -22
85 -33 85 -14 0 -29 -47 -29 -91 0 -35 -3 -39 -25 -39 -21 0 -25 5 -25 29 0
49 -12 92 -27 98 -23 9 -33 -16 -33 -79 0 -55 -1 -58 -25 -58 -20 0 -25 5 -25
26 0 36 -21 113 -32 120 -17 10 -27 -17 -34 -88 -8 -84 -29 -92 -37 -14 -12
118 -57 125 -57 9 0 -70 2 -68 -75 -77 l-50 -6 -57 110 -58 109 73 4 c145 9
748 -2 967 -18z m-1608 -60 c-39 -36 -94 -95 -122 -131 -59 -74 -87 -82 -125
-36 -40 46 -175 222 -175 227 0 3 17 5 38 4 34 0 42 -6 100 -80 34 -43 67 -79
73 -79 5 0 47 36 92 79 78 75 86 80 132 83 28 2 52 2 54 1 2 -2 -28 -32 -67
-68z m158 69 c0 -4 -42 -48 -92 -98 -51 -50 -120 -130 -153 -178 l-60 -88
-122 0 c-137 0 -142 3 -104 66 l18 30 -93 117 c-52 64 -94 123 -94 132 0 11
12 15 49 15 l50 0 98 -127 c54 -70 110 -133 123 -140 28 -14 54 -3 85 36 42
54 102 118 167 179 52 48 74 62 98 62 16 0 30 -3 30 -6z m454 -101 c30 -59 53
-109 51 -111 -2 -2 -72 -12 -157 -22 -292 -35 -418 -54 -418 -62 0 -5 10 -6
23 -3 38 8 234 34 452 60 424 49 1040 98 1625 126 331 17 1188 17 1405 1 667
-50 1109 -120 1450 -229 61 -19 122 -42 138 -49 l27 -15 0 -368 0 -369 -29
-12 c-47 -19 -109 -89 -130 -145 -10 -27 -24 -99 -30 -160 -23 -201 -50 -365
-66 -389 -22 -33 -61 -47 -136 -49 l-64 -2 -6 110 c-18 296 -113 573 -266 775
-139 183 -353 340 -572 420 -268 98 -607 99 -873 4 -214 -77 -443 -239 -578
-407 -33 -42 -47 -53 -57 -46 -7 6 -37 21 -67 33 l-55 23 63 79 c163 207 399
370 655 454 150 49 226 61 406 67 143 4 189 2 290 -15 515 -88 934 -441 1089
-916 28 -86 56 -221 56 -272 0 -19 4 -34 9 -34 19 0 -13 178 -55 310 -147 459
-549 812 -1040 914 -472 99 -969 -44 -1304 -374 -48 -47 -108 -114 -134 -149
l-47 -65 -49 3 c-82 4 -122 -21 -255 -165 -231 -247 -281 -299 -364 -377 -47
-43 -121 -102 -165 -131 -142 -94 -397 -213 -561 -263 -94 -28 -124 -42 -138
-64 -19 -31 1 -46 110 -82 59 -20 124 -42 143 -50 l34 -15 -64 -6 c-36 -3
-402 -10 -815 -16 -412 -6 -993 -15 -1290 -20 -1294 -22 -1529 -23 -1549 -7
-19 14 -19 19 -8 93 16 104 15 182 -3 339 -24 209 -61 332 -146 494 -174 333
-428 550 -749 640 -164 46 -234 55 -395 56 -211 0 -387 -41 -570 -133 -264
-132 -435 -322 -551 -612 -77 -192 -134 -448 -153 -684 -11 -147 -12 -148
-170 -140 -314 15 -623 61 -761 113 -111 42 -211 142 -344 346 -122 186 -142
257 -133 473 10 217 38 295 140 396 139 135 409 276 703 364 321 97 691 156
1259 203 236 20 812 17 965 -4 249 -35 320 -61 571 -209 121 -71 126 -73 204
-78 l80 -5 3 -35 c10 -137 70 -333 140 -463 101 -188 277 -399 408 -493 158
-113 401 -194 684 -230 154 -19 605 -19 714 1 201 36 372 168 474 368 59 115
80 245 84 527 3 141 1 159 -19 202 -34 75 -97 133 -265 246 l-158 106 36 30
c38 30 89 125 100 184 3 17 9 32 13 31 3 0 44 -48 90 -106 l84 -105 -17 -35
c-9 -18 -16 -43 -16 -54 0 -19 6 -19 132 -17 l131 3 68 95 c38 52 110 136 161
186 l93 91 187 2 187 1 55 -107z m-669 89 c-6 -4 -43 -39 -82 -77 l-73 -68
-19 24 c-10 13 -38 48 -61 77 l-42 52 143 0 c79 0 139 -4 134 -8z m998 -59 c3
-10 8 -39 12 -64 5 -41 3 -47 -15 -52 -19 -5 -20 -1 -20 64 0 64 12 92 23 52z
m125 -52 c4 -47 3 -51 -17 -51 -18 0 -21 6 -21 44 0 92 29 97 38 7z m-212 -19
c6 -49 5 -52 -15 -52 -19 0 -21 5 -21 58 0 95 23 91 36 -6z m314 71 c1 -5 5
-27 9 -50 8 -41 7 -43 -15 -43 -20 0 -24 5 -24 28 0 37 10 72 21 72 5 0 9 -3
9 -7z m116 -45 c5 -30 3 -36 -15 -41 -18 -4 -21 -1 -21 28 0 72 25 81 36 13z
m-5021 -38 c255 -10 337 -22 397 -57 31 -18 59 -66 46 -79 -3 -3 -36 4 -72 15
-309 95 -1016 95 -1736 0 -604 -80 -1027 -214 -1327 -421 -87 -60 -196 -173
-213 -220 -9 -25 -23 -38 -55 -51 -23 -10 -55 -31 -71 -48 -28 -29 -29 -33
-27 -127 1 -134 14 -173 67 -218 31 -26 46 -47 51 -71 3 -19 8 -40 11 -47 4
-10 -2 -12 -21 -9 -22 5 -28 0 -43 -36 -9 -22 -20 -41 -23 -41 -9 0 -76 192
-94 270 -17 75 -20 243 -5 320 24 124 86 206 233 308 147 101 384 217 577 282
253 84 809 187 1190 220 69 5 141 12 160 14 81 7 724 5 955 -4z m3180 -250
c173 -117 245 -183 276 -254 18 -43 21 -67 20 -175 -2 -157 -17 -336 -36 -418
-40 -171 -181 -349 -339 -427 -135 -67 -163 -71 -526 -71 -360 1 -466 12 -684
76 -137 40 -325 134 -407 203 -152 127 -350 405 -413 580 -34 93 -64 217 -72
299 l-7 67 430 0 c573 0 783 18 1138 96 157 35 422 107 433 118 15 16 49 -2
187 -94z m5826 -33 l34 -23 3 -152 c2 -149 2 -153 -17 -142 -13 7 -28 7 -45 0
l-26 -10 0 175 c0 96 4 175 9 175 4 0 23 -10 42 -23z m118 -127 c39 -73 53
-174 40 -289 -10 -91 -20 -121 -55 -173 -54 -77 -54 -75 -54 254 0 295 0 301
19 284 10 -9 33 -44 50 -76z m-1698 14 c250 -40 487 -162 668 -343 229 -228
355 -530 378 -904 4 -80 10 -110 20 -114 8 -3 76 0 151 6 156 14 190 25 277
96 52 43 195 130 195 120 0 -2 -20 -53 -45 -114 -49 -119 -53 -145 -29 -172
23 -26 10 -74 -29 -101 -31 -23 -37 -23 -364 -26 l-331 -3 14 53 c33 127 34
336 3 488 -93 449 -474 815 -933 895 -101 17 -291 20 -383 5 -541 -88 -952
-539 -980 -1077 -9 -176 16 -323 86 -496 17 -43 31 -80 31 -83 0 -2 -126 -4
-280 -4 l-279 0 24 36 c28 41 30 52 13 88 -20 45 -66 50 -108 11 -64 -61 -39
-59 -825 -66 -396 -4 -1173 -7 -1727 -8 l-1008 -1 0 30 0 30 -70 0 -70 0 0
-30 0 -30 -183 0 c-172 0 -185 1 -202 20 -10 11 -32 24 -49 29 -23 7 -3 9 79
10 61 1 362 5 670 11 308 5 850 14 1205 20 1306 21 2237 41 2308 50 195 23
251 114 272 440 11 179 32 257 110 415 72 146 159 263 280 378 305 291 692
410 1111 341z m-7433 -43 c296 -58 533 -191 696 -390 166 -203 269 -414 310
-631 27 -143 39 -351 26 -446 -14 -98 -9 -130 23 -140 12 -5 87 -7 167 -6 105
1 136 -1 114 -8 -45 -14 -83 -57 -90 -101 l-7 -39 -213 0 c-142 0 -214 4 -214
10 0 6 9 28 20 50 92 181 134 453 100 662 -78 491 -459 878 -948 963 -97 17
-288 19 -379 5 -586 -95 -1004 -600 -980 -1185 4 -92 13 -158 30 -225 14 -52
24 -96 23 -96 -3 -3 -241 19 -245 22 -2 2 6 12 19 22 20 17 24 33 35 153 63
663 281 1064 692 1268 135 67 300 115 463 135 68 8 261 -4 358 -23z m-52 -81
c304 -54 554 -195 726 -409 112 -140 177 -270 226 -450 23 -85 26 -115 26
-266 0 -143 -3 -184 -22 -258 -107 -426 -413 -736 -837 -848 -372 -99 -791 10
-1078 280 -266 250 -399 635 -342 988 80 491 425 848 923 953 99 21 285 26
378 10z m7444 -5 c247 -43 458 -153 630 -325 215 -216 330 -495 330 -801 0
-539 -383 -1002 -920 -1113 -443 -91 -927 102 -1171 468 -121 180 -176 328
-200 539 -23 198 15 407 110 602 62 127 119 208 218 308 255 258 649 384 1003
322z m1930 -28 c32 -16 51 -33 64 -60 21 -43 20 -49 -34 -242 -25 -89 -32
-142 -40 -280 -16 -263 -26 -292 -50 -140 -6 44 -19 88 -28 98 -19 21 -60 22
-83 1 -22 -20 -83 -199 -75 -219 3 -9 17 -20 31 -25 19 -7 25 -17 25 -39 0
-48 -10 -61 -72 -92 -32 -16 -96 -59 -141 -95 -82 -65 -110 -77 -200 -88 l-49
-6 25 30 c28 33 31 43 52 184 8 54 16 99 17 100 90 36 174 100 184 141 9 36
-22 82 -81 121 l-55 37 18 29 c26 45 51 64 139 107 97 47 154 96 181 154 27
57 46 184 39 258 l-5 61 46 -7 c26 -3 67 -16 92 -28z m-276 -79 c14 -23 -3
-52 -33 -56 -42 -6 -67 38 -39 66 17 17 58 11 72 -10z m-18 -69 l24 11 0 -123
0 -123 -45 -22 -45 -22 0 145 c0 145 0 146 21 134 16 -8 28 -8 45 0z m-11960
-156 c-22 -129 -27 -197 -22 -270 4 -49 3 -83 -2 -83 -5 0 -21 9 -35 20 -32
26 -47 91 -47 209 0 97 9 117 65 146 44 22 48 19 41 -22z m8927 11 c3 -3 -5
-23 -17 -43 -77 -121 -146 -308 -171 -461 -15 -94 -19 -307 -6 -364 3 -17 6
49 6 145 1 241 36 393 138 594 68 135 64 131 123 111 88 -30 89 -32 37 -111
-133 -206 -193 -403 -193 -637 0 -122 -42 -242 -100 -291 -63 -53 -100 -58
-571 -69 l-436 -11 -74 31 c-41 16 -104 39 -142 51 -151 46 -146 70 23 121
177 52 428 170 575 268 119 80 236 191 455 431 166 184 208 220 265 234 30 7
81 8 88 1z m2913 -367 c49 -58 24 -113 -74 -165 -33 -18 -62 -32 -64 -32 -6 0
10 158 23 218 l11 52 40 -22 c22 -13 51 -36 64 -51z m322 26 c5 -10 17 -62 26
-117 l17 -99 -23 -24 c-13 -14 -42 -38 -65 -55 l-43 -29 0 46 c0 39 -3 47 -25
55 -18 7 -25 17 -25 36 0 34 47 164 67 186 21 23 60 23 71 1z m-12284 -153 c5
-17 4 -20 -2 -10 -5 8 -13 26 -16 40 -5 17 -4 20 2 10 5 -8 13 -26 16 -40z
m-26 15 c19 -40 15 -46 -25 -43 -35 3 -38 6 -41 36 -3 29 -1 32 26 32 21 0 32
-7 40 -25z m162 -35 c28 -28 34 -65 20 -125 -12 -51 -10 -96 6 -140 15 -41
-15 1 -61 88 -46 86 -47 90 -35 130 20 70 36 81 70 47z m12208 -219 l5 -124
-24 7 c-56 16 -89 18 -104 6 -8 -7 -24 -39 -36 -71 -17 -47 -26 -59 -43 -59
-25 0 -46 17 -46 38 0 8 21 68 48 134 46 116 49 121 100 155 30 20 59 44 65
54 11 17 12 17 21 2 5 -9 11 -73 14 -142z m-12090 40 c35 -54 89 -128 121
-164 58 -67 150 -147 169 -147 6 0 13 -4 16 -9 3 -5 -33 0 -81 10 -92 20 -195
73 -258 133 -45 44 -72 154 -55 226 7 27 15 50 18 49 4 0 36 -44 70 -98z
m-169 12 c18 -38 49 -91 67 -119 28 -42 34 -61 34 -103 0 -115 -57 -143 -95
-45 -19 51 -56 74 -119 74 -34 0 -46 13 -46 49 0 9 20 47 43 83 24 36 50 80
57 97 7 17 15 31 19 31 4 0 22 -30 40 -67z m8589 -505 c17 -17 15 -74 -4 -104
-9 -14 -36 -36 -59 -50 -95 -55 -36 -54 -1882 -54 l-1703 0 0 59 0 58 1703 6
c1866 6 1777 3 1854 65 40 33 71 40 91 20z m-3663 -53 c0 -17 -8 -20 -57 -23
-57 -3 -58 -2 -58 23 0 25 1 26 58 23 49 -3 57 -6 57 -23z m-527 -5 c31 -19
32 -22 32 -89 0 -63 -2 -71 -26 -90 -32 -25 -100 -28 -132 -5 -12 8 -29 28
-37 44 -53 102 63 201 163 140z m402 -90 l0 -60 -173 0 -172 0 0 60 0 60 172
0 173 0 0 -60z m130 0 l0 -60 -60 0 -60 0 0 60 0 60 60 0 60 0 0 -60z m-483
-12 c-3 -8 -6 -5 -6 6 -1 11 2 17 5 13 3 -3 4 -12 1 -19z m481 -75 c3 -10 -13
-13 -57 -13 -48 0 -61 3 -61 15 0 13 11 15 57 13 34 -2 58 -8 61 -15z"/>
<path d="M2835 3804 c-207 -31 -359 -79 -515 -160 -266 -138 -475 -353 -601
-618 -55 -115 -93 -238 -108 -350 -12 -84 -13 -293 -2 -341 4 -16 5 33 3 110
-5 158 11 280 54 417 128 408 456 729 885 866 168 54 255 67 459 66 167 0 197
-3 305 -28 155 -36 236 -66 366 -133 335 -173 586 -482 674 -829 45 -174 51
-349 20 -544 -4 -27 -3 -30 4 -14 19 42 34 217 27 316 -39 598 -475 1081
-1099 1219 -68 15 -139 21 -267 24 -96 2 -188 1 -205 -1z"/>
<path d="M6331 3534 c-29 -21 -49 -68 -43 -100 6 -33 57 -74 93 -74 45 0 93
48 93 95 0 71 -86 119 -143 79z m88 -9 c54 -27 57 -99 8 -137 -32 -25 -70 -22
-101 8 -37 38 -36 84 5 118 35 30 49 32 88 11z"/>
<path d="M2885 3399 c-261 -33 -514 -176 -671 -380 -94 -122 -169 -298 -194
-451 -19 -120 -8 -312 24 -423 102 -347 354 -594 712 -697 69 -20 101 -23 249
-22 155 0 178 3 260 28 345 104 594 350 690 683 120 414 -43 860 -402 1100
-84 56 -228 120 -318 141 -61 14 -208 32 -250 31 -16 -1 -61 -5 -100 -10z
m297 -23 c434 -84 759 -440 796 -876 43 -505 -290 -949 -788 -1050 -361 -74
-747 73 -972 370 -63 83 -130 220 -165 335 -24 81 -26 106 -27 250 0 136 3
173 22 243 102 376 383 645 759 726 88 19 281 20 375 2z"/>
<path d="M2869 3135 c-231 -46 -419 -189 -524 -397 -60 -121 -79 -210 -73
-356 9 -203 71 -345 213 -487 141 -141 284 -204 482 -213 137 -6 233 13 350
69 146 70 259 178 332 319 143 273 108 582 -91 822 -159 191 -445 292 -689
243z m300 -22 c122 -25 241 -92 341 -193 124 -123 190 -259 209 -430 27 -242
-79 -499 -267 -643 -270 -208 -640 -208 -899 0 -89 71 -149 147 -198 248 -52
108 -75 205 -75 317 1 347 241 640 580 707 104 21 190 19 309 -6z"/>
<path d="M2872 3035 c-190 -43 -354 -171 -437 -340 -47 -96 -66 -174 -66 -281
-1 -255 144 -481 376 -583 172 -76 399 -66 564 26 91 50 207 169 253 258 57
111 72 174 72 300 -1 93 -5 122 -28 190 -70 202 -210 343 -411 410 -98 33
-230 42 -323 20z m303 -27 c292 -83 482 -371 444 -672 -54 -432 -525 -677
-912 -474 -82 43 -212 173 -255 255 -67 127 -90 307 -57 438 22 85 86 211 139
271 155 176 410 248 641 182z"/>
<path d="M2940 2969 c-278 -26 -500 -273 -500 -554 1 -363 338 -632 687 -550
105 25 190 72 268 150 114 114 167 242 166 400 -1 155 -53 279 -165 391 -127
127 -274 180 -456 163z m252 -42 c382 -147 483 -633 189 -909 -81 -76 -145
-112 -247 -138 -131 -34 -256 -20 -382 42 -81 40 -185 139 -230 219 -38 67
-72 192 -72 264 0 252 167 471 413 540 82 23 245 14 329 -18z"/>
<path d="M2888 2905 c-135 -34 -275 -141 -331 -251 -121 -238 -53 -519 159
-659 170 -113 392 -115 560 -7 139 90 233 261 234 423 0 64 -35 193 -67 248
-35 61 -114 143 -172 181 -106 67 -267 95 -383 65z m191 -5 c347 -57 528 -457
340 -751 -192 -302 -637 -305 -831 -5 -73 113 -98 266 -64 392 47 178 196 319
376 358 81 18 99 18 179 6z"/>
<path d="M2972 2463 c-21 -8 -34 -51 -22 -73 17 -31 45 -42 75 -28 70 32 19
130 -53 101z m63 -23 c15 -17 16 -24 7 -46 -10 -21 -18 -25 -45 -22 -27 3 -32
7 -35 33 -3 19 2 33 14 42 25 18 38 16 59 -7z"/>
<path d="M10305 3399 c-402 -50 -719 -323 -842 -724 -25 -83 -27 -103 -27
-260 0 -143 4 -182 22 -247 105 -380 408 -663 787 -734 130 -24 318 -15 440
21 376 110 637 394 716 780 18 86 15 284 -5 377 -57 263 -206 481 -430 629
-134 88 -278 140 -444 159 -98 11 -119 11 -217 -1z m297 -23 c578 -111 928
-689 757 -1251 -131 -430 -533 -714 -979 -692 -256 13 -474 109 -655 291 -129
130 -206 266 -257 454 -29 108 -32 343 -4 452 93 367 353 634 707 729 41 11
85 22 99 24 60 10 264 6 332 -7z"/>
<path d="M10289 3135 c-290 -58 -507 -266 -580 -554 -30 -119 -24 -282 15
-396 76 -224 250 -398 473 -473 70 -23 94 -26 223 -27 126 0 154 3 214 23 261
88 440 279 507 543 22 86 17 258 -10 354 -76 270 -289 469 -563 526 -106 22
-185 23 -279 4z m299 -21 c248 -52 465 -264 533 -521 26 -98 28 -249 5 -348
-49 -207 -193 -386 -384 -480 -117 -57 -178 -70 -327 -69 -113 0 -141 4 -210
27 -236 79 -401 248 -477 487 -33 107 -33 303 0 404 78 234 231 398 442 474
137 50 263 58 418 26z"/>
<path d="M10295 3035 c-225 -46 -423 -232 -484 -455 -26 -92 -28 -235 -5 -323
58 -225 244 -410 466 -462 82 -19 228 -19 303 0 220 56 393 225 461 451 29 94
25 257 -9 360 -65 196 -212 343 -407 408 -103 34 -224 42 -325 21z m270 -17
c97 -20 211 -83 289 -161 109 -108 166 -221 187 -374 27 -195 -68 -431 -222
-553 -261 -206 -623 -182 -849 57 -122 127 -176 278 -167 458 21 391 371 654
762 573z"/>
<path d="M10360 2969 c-233 -24 -430 -198 -485 -430 -82 -349 189 -690 548
-689 244 1 464 164 538 400 27 85 29 222 5 305 -54 186 -186 326 -368 391 -59
21 -159 31 -238 23z m195 -24 c197 -52 349 -201 400 -395 8 -30 15 -91 15
-135 1 -492 -588 -737 -935 -390 -142 142 -194 328 -145 519 26 102 62 166
138 247 68 72 160 128 253 153 72 19 201 20 274 1z"/>
<path d="M10308 2905 c-383 -97 -521 -565 -249 -844 100 -102 214 -150 357
-151 248 0 443 154 500 397 57 242 -89 499 -332 583 -77 27 -202 34 -276 15z
m192 -6 c208 -33 378 -205 410 -414 46 -294 -187 -565 -485 -565 -140 0 -251
46 -350 145 -99 99 -145 210 -145 350 0 135 55 260 156 354 72 68 143 106 235
125 80 18 98 18 179 5z"/>
<path d="M10394 2462 c-23 -15 -35 -51 -24 -72 32 -60 110 -39 110 29 0 36
-55 64 -86 43z m58 -19 c37 -33 13 -77 -39 -71 -23 2 -29 9 -31 33 -3 19 2 33
14 42 23 17 34 16 56 -4z"/>
<path d="M9097 3183 c-12 -11 -7 -41 7 -46 21 -8 48 16 40 36 -6 17 -35 23
-47 10z m33 -18 c0 -8 -7 -15 -15 -15 -8 0 -15 7 -15 15 0 8 7 15 15 15 8 0
15 -7 15 -15z"/>
<path d="M8900 3005 c-17 -20 -5 -45 20 -45 11 0 23 7 26 15 6 15 -11 45 -26
45 -4 0 -13 -7 -20 -15z m36 -6 c10 -17 -13 -36 -27 -22 -12 12 -4 33 11 33 5
0 12 -5 16 -11z"/>
<path d="M8734 2805 c-8 -21 2 -45 19 -45 8 0 20 7 27 15 10 12 10 18 0 30 -7
8 -19 15 -27 15 -7 0 -16 -7 -19 -15z m36 -15 c0 -21 -15 -27 -25 -10 -7 12 2
30 16 30 5 0 9 -9 9 -20z"/>
<path d="M8490 2595 c-16 -19 -6 -45 19 -45 23 0 35 28 20 46 -15 18 -24 18
-39 -1z m36 -6 c10 -17 -13 -36 -27 -22 -12 12 -4 33 11 33 5 0 12 -5 16 -11z"/>
<path d="M8256 2435 c-20 -20 -10 -45 19 -45 29 0 39 25 19 45 -9 8 -17 15
-19 15 -2 0 -10 -7 -19 -15z m34 -20 c0 -8 -7 -15 -15 -15 -8 0 -15 7 -15 15
0 8 7 15 15 15 8 0 15 -7 15 -15z"/>
<path d="M8006 2324 c-8 -8 -13 -21 -9 -30 8 -22 47 -13 51 12 4 27 -22 38
-42 18z m34 -19 c0 -8 -7 -15 -15 -15 -8 0 -15 7 -15 15 0 8 7 15 15 15 8 0
15 -7 15 -15z"/>
<path d="M8084 2135 c-8 -21 2 -45 19 -45 8 0 20 7 27 15 10 12 10 18 0 30 -7
8 -19 15 -27 15 -7 0 -16 -7 -19 -15z m42 -6 c10 -17 -13 -36 -27 -22 -12 12
-4 33 11 33 5 0 12 -5 16 -11z"/>
<path d="M12728 3543 c-35 -41 -37 -47 -98 -445 -65 -419 -72 -516 -44 -556
20 -28 50 -28 68 1 8 12 22 78 31 147 26 203 63 453 92 628 20 122 24 172 17
200 -10 43 -40 54 -66 25z m54 -19 c10 -21 6 -60 -20 -217 -17 -106 -48 -313
-68 -462 -35 -260 -49 -315 -78 -315 -18 0 -36 44 -36 88 0 97 112 822 135
878 24 59 49 69 67 28z"/>
<path d="M12 3238 c-7 -7 -12 -27 -12 -45 0 -26 5 -34 25 -39 14 -3 31 -4 39
-1 13 5 28 74 19 90 -7 11 -58 8 -71 -5z m61 -10 c-2 -5 -3 -19 -3 -33 0 -21
-5 -25 -30 -25 -25 0 -30 4 -30 23 0 13 6 29 12 35 13 13 55 13 51 0z"/>
</g>
</svg>
